<svg width="38" height="39" viewBox="0 0 38 39" fill="none" xmlns="http://www.w3.org/2000/svg">
<path d="M19 38.505C13.9609 38.505 9.12816 36.5032 5.56497 32.94C2.00178 29.3768 0 24.5441 0 19.505C0 14.4659 2.00178 9.63317 5.56497 6.06998C9.12816 2.50679 13.9609 0.505005 19 0.505005C24.0391 0.505005 28.8718 2.50679 32.435 6.06998C35.9982 9.63317 38 14.4659 38 19.505C38 24.5441 35.9982 29.3768 32.435 32.94C28.8718 36.5032 24.0391 38.505 19 38.505Z" fill="#004197"/>
<path d="M13.3081 15.192H9.36914V27.916H13.3081V15.192Z" fill="white"/>
<path d="M11.3202 13.525C11.7854 13.5288 12.2412 13.3943 12.6298 13.1386C13.0185 12.8829 13.3224 12.5175 13.503 12.0888C13.6836 11.6601 13.7328 11.1874 13.6444 10.7307C13.556 10.274 13.3339 9.85385 13.0063 9.52358C12.6786 9.1933 12.2603 8.96778 11.8043 8.87563C11.3484 8.78348 10.8753 8.82886 10.4451 9.006C10.015 9.18314 9.64715 9.48407 9.3883 9.87059C9.12945 10.2571 8.99124 10.7118 8.99123 11.177C8.98884 11.7972 9.23284 12.3929 9.66959 12.8332C10.1063 13.2735 10.7001 13.5224 11.3202 13.525Z" fill="white"/>
<path d="M19.6039 21.2361C19.6039 19.4481 20.4269 18.3821 22.0039 18.3821C23.4519 18.3821 24.1479 19.4051 24.1479 21.2361V27.9151H28.0679V19.8591C28.0679 16.4511 26.1359 14.8031 23.4379 14.8031C22.6719 14.7921 21.9161 14.9799 21.2442 15.3479C20.5723 15.7159 20.0072 16.2517 19.6039 16.9031V15.1901H15.8259V27.9131H19.6039V21.2361Z" fill="white"/>
</svg>
