<svg width="29" height="51" viewBox="0 0 29 51" fill="none" xmlns="http://www.w3.org/2000/svg">
<path d="M17.548 34.663C17.548 32.9126 16.8526 31.2338 15.6149 29.9961C14.3771 28.7583 12.6984 28.063 10.948 28.063C9.19754 28.063 7.51881 28.7583 6.28107 29.9961C5.04333 31.2338 4.34797 32.9126 4.34797 34.663C4.34797 42.363 1.04797 44.563 1.04797 44.563H20.848C20.848 44.563 17.548 42.363 17.548 34.663Z" stroke="black" stroke-width="1.5" stroke-linecap="round" stroke-linejoin="round"/>
<path d="M12.853 48.967C12.6597 49.3007 12.3821 49.5776 12.048 49.7701C11.7139 49.9627 11.3351 50.064 10.9495 50.064C10.5639 50.064 10.1851 49.9627 9.85104 49.7701C9.51696 49.5776 9.23935 49.3007 9.04602 48.967" stroke="black" stroke-width="1.5" stroke-linecap="round" stroke-linejoin="round"/>
<path d="M23 28C26.3137 28 29 25.3137 29 22C29 18.6863 26.3137 16 23 16C19.6863 16 17 18.6863 17 22C17 25.3137 19.6863 28 23 28Z" fill="#E2342D"/>
</svg>
