<svg width="96" height="97" viewBox="0 0 96 97" fill="none" xmlns="http://www.w3.org/2000/svg">
<g filter="url(#filter0_d_1_167)">
<path d="M48 80.903C65.6731 80.903 80 66.5761 80 48.903C80 31.2298 65.6731 16.903 48 16.903C30.3269 16.903 16 31.2298 16 48.903C16 66.5761 30.3269 80.903 48 80.903Z" fill="white"/>
</g>
<path d="M50.383 48.9L42.441 40.964C42.3019 40.8244 42.1917 40.6589 42.1166 40.4768C42.0415 40.2946 42.003 40.0995 42.0034 39.9025C42.0037 39.7055 42.0428 39.5105 42.1185 39.3286C42.1942 39.1467 42.305 38.9815 42.4445 38.8425C42.584 38.7034 42.7496 38.5932 42.9317 38.5181C43.1138 38.443 43.309 38.4045 43.506 38.4048C43.703 38.4052 43.898 38.4443 44.0799 38.52C44.2617 38.5957 44.4269 38.7064 44.566 38.846L53.566 47.838C53.8374 48.1112 53.9933 48.4782 54.0015 48.8632C54.0097 49.2481 53.8695 49.6215 53.61 49.906L44.574 58.96C44.4358 59.1034 44.2705 59.2179 44.0876 59.2968C43.9047 59.3756 43.7079 59.4173 43.5088 59.4193C43.3096 59.4213 43.112 59.3836 42.9276 59.3085C42.7432 59.2333 42.5755 59.1222 42.4345 58.9815C42.2935 58.8409 42.1818 58.6736 42.1062 58.4894C42.0305 58.3051 41.9922 58.1077 41.9937 57.9085C41.9951 57.7093 42.0362 57.5125 42.1146 57.3293C42.1929 57.1462 42.3069 56.9806 42.45 56.842L50.383 48.9Z" fill="#4A4B4D"/>
<defs>
<filter id="filter0_d_1_167" x="0" y="0.902954" width="96" height="96" filterUnits="userSpaceOnUse" color-interpolation-filters="sRGB">
<feFlood flood-opacity="0" result="BackgroundImageFix"/>
<feColorMatrix in="SourceAlpha" type="matrix" values="0 0 0 0 0 0 0 0 0 0 0 0 0 0 0 0 0 0 127 0" result="hardAlpha"/>
<feOffset/>
<feGaussianBlur stdDeviation="8"/>
<feColorMatrix type="matrix" values="0 0 0 0 0 0 0 0 0 0 0 0 0 0 0 0 0 0 0.078 0"/>
<feBlend mode="normal" in2="BackgroundImageFix" result="effect1_dropShadow_1_167"/>
<feBlend mode="normal" in="SourceGraphic" in2="effect1_dropShadow_1_167" result="shape"/>
</filter>
</defs>
</svg>
